<svg xmlns="http://www.w3.org/2000/svg" version="1.1" x="0" y="0" width="320.4" height="49.9" viewBox="0 0 320.4 49.9" xml:space="preserve"><style>.s0{fill:#fff;}</style><path d="M82.8 0.6h2.2c1.7 0 3.2 0.2 4.5 1.4 1.3 1.1 1.9 2.7 1.9 4.4 0 1.7-0.6 3.2-1.9 4.3 -1.4 1.2-2.8 1.5-4.6 1.5h-2.2V0.6zM85 11.1c1.4 0 2.6-0.2 3.7-1.2 1-0.9 1.4-2.1 1.4-3.4 0-1.3-0.5-2.6-1.5-3.5 -1.1-1-2.2-1.1-3.6-1.1H84.1v9.3H85zM108.7 6.5c0 3.4-2.8 6-6.1 6 -3.3 0-6.1-2.7-6.1-6 0-3.3 2.8-6.1 6.1-6.1C106 0.4 108.7 3.1 108.7 6.5zM97.9 6.5c0 2.6 2.1 4.8 4.8 4.8 2.6 0 4.8-2.2 4.8-4.8 0-2.7-2.1-4.8-4.8-4.8C100 1.6 97.9 3.8 97.9 6.5zM117.9 9.4L121.7 0l3.8 9.4 3.1-8.8h1.4l-4.5 12.3 -3.8-9.4 -3.8 9.4 -4.5-12.3h1.4L117.9 9.4zM135.2 0.1l9.1 9.5V0.6h1.3v12.2l-9.1-9.5v9h-1.3V0.1zM155 12.3h-1.3V1.8h-2.8V0.6h7v1.2h-2.9V12.3zM174.7 6.5c0 3.4-2.8 6-6.1 6 -3.3 0-6.1-2.7-6.1-6 0-3.3 2.8-6.1 6.1-6.1C171.9 0.4 174.7 3.1 174.7 6.5zM163.8 6.5c0 2.6 2.1 4.8 4.8 4.8 2.7 0 4.8-2.2 4.8-4.8 0-2.7-2.1-4.8-4.8-4.8C165.9 1.6 163.8 3.8 163.8 6.5zM183.8 9.4L187.6 0l3.8 9.4 3.1-8.8h1.4l-4.5 12.3 -3.8-9.4 -3.8 9.4 -4.5-12.3h1.4L183.8 9.4zM201.2 0.1l9.1 9.5V0.6h1.3v12.2l-9.1-9.5v9h-1.3V0.1zM230.2 9.5l3.3-8.9h1.4l-4.7 12.4 -4.7-12.4h1.4L230.2 9.5zM241.4 12.3h-1.3V0.6h1.3V12.3zM256.5 3.2c-0.9-1-2.2-1.6-3.6-1.6 -2.6 0-4.7 2.3-4.7 4.8 0 2.6 2.1 4.8 4.8 4.8 1.3 0 2.6-0.6 3.5-1.6v1.6c-1 0.7-2.3 1.2-3.5 1.2 -3.3 0-6.1-2.7-6.1-6 0-3.4 2.7-6.1 6.1-6.1 1.3 0 2.4 0.4 3.5 1.1V3.2zM265.7 12.3h-1.3V1.8h-2.8V0.6h7v1.2h-2.9V12.3zM285.4 6.5c0 3.4-2.8 6-6.1 6 -3.3 0-6.1-2.7-6.1-6 0-3.3 2.7-6.1 6.1-6.1C282.6 0.4 285.4 3.1 285.4 6.5zM274.5 6.5c0 2.6 2.1 4.8 4.8 4.8 2.7 0 4.8-2.2 4.8-4.8 0-2.7-2.1-4.8-4.8-4.8C276.6 1.6 274.5 3.8 274.5 6.5zM292.3 12.3h-1.3V0.6h1.7c2.2 0 4.3 0.6 4.3 3.2 0 1.8-1.1 3.1-2.9 3.2l3.7 5.2h-1.6l-3.5-5.1h-0.3V12.3zM292.3 6h0.4c1.5 0 3-0.3 3-2.1 0-1.9-1.4-2.1-3-2.1h-0.4V6zM304.6 12.3h-1.3V0.6h1.3V12.3zM312.6 9l-1.4 3.3h-1.4l5.4-12.2 5.3 12.2h-1.4l-1.4-3.3H312.6zM315.1 3.1l-2 4.7h3.9L315.1 3.1zM82.9 19.2h1.9c2.1 0 3.9 0.8 3.9 3.2 0 0.9-0.3 1.8-1.1 2.3 1.4 0.3 2.2 1.6 2.2 3 0 2.3-1.9 3.3-4.2 3.3h-2.7V19.2zM84.2 24.3h0.5c1.5 0 2.7-0.2 2.7-2 0-1.8-1.1-2-2.7-2H84.2V24.3zM84.2 29.7h1.3c1.4 0 3-0.4 3-2.1 0-1.8-1.7-2.1-3.2-2.1H84.2V29.7zM96.2 26.2c0 0.9 0 1.9 0.5 2.6 0.5 0.7 1.5 1.1 2.4 1.1 0.8 0 1.8-0.4 2.3-1 0.6-0.7 0.6-1.8 0.6-2.7v-7h1.3v7.3c0 1.3-0.1 2.3-1 3.2 -0.8 0.9-2 1.3-3.1 1.3 -1.1 0-2.2-0.4-3-1.2 -1-1-1.1-2.1-1.1-3.4v-7.3h1.3V26.2zM114.1 21.5c-0.5-0.8-1-1.3-2-1.3 -1 0-1.9 0.7-1.9 1.8 0 1 1 1.5 1.8 1.8l0.8 0.3c1.5 0.7 2.8 1.4 2.8 3.3 0 2-1.6 3.6-3.7 3.6 -1.9 0-3.3-1.2-3.6-3l1.3-0.4c0.2 1.2 1.1 2.2 2.3 2.2 1.3 0 2.4-1 2.4-2.3 0-1.4-1.1-1.8-2.1-2.3l-0.7-0.3c-1.4-0.6-2.5-1.3-2.5-3 0-1.8 1.5-3 3.3-3 1.3 0 2.4 0.7 3 1.8L114.1 21.5zM122 30.9h-1.3V19.2h1.3V30.9zM127.7 18.7l9.1 9.5v-9h1.3v12.2l-9.1-9.5v9h-1.3V18.7zM143.7 19.2h6v1.2h-4.7v3.5h4.6v1.2h-4.6v4.6h4.7v1.2h-6V19.2zM160.5 21.5c-0.5-0.8-1-1.3-2-1.3 -1 0-1.9 0.7-1.9 1.8 0 1 1 1.5 1.8 1.8l0.8 0.3c1.5 0.7 2.8 1.4 2.8 3.3 0 2-1.7 3.6-3.7 3.6 -1.9 0-3.3-1.2-3.6-3l1.3-0.4c0.2 1.2 1.1 2.2 2.3 2.2 1.3 0 2.4-1 2.4-2.3 0-1.4-1.1-1.8-2.2-2.3l-0.7-0.3c-1.4-0.6-2.5-1.3-2.5-3 0-1.8 1.5-3 3.3-3 1.3 0 2.4 0.7 3 1.8L160.5 21.5zM172.4 21.5c-0.5-0.8-1-1.3-2-1.3 -1 0-1.9 0.7-1.9 1.8 0 1 1 1.5 1.8 1.8l0.8 0.3c1.5 0.7 2.8 1.4 2.8 3.3 0 2-1.6 3.6-3.7 3.6 -1.9 0-3.3-1.2-3.6-3l1.3-0.4c0.2 1.2 1.1 2.2 2.3 2.2 1.2 0 2.4-1 2.4-2.3 0-1.4-1.1-1.8-2.2-2.3l-0.7-0.3c-1.4-0.6-2.5-1.3-2.5-3 0-1.8 1.5-3 3.3-3 1.3 0 2.4 0.7 3 1.8L172.4 21.5zM188.7 27.6l-1.4 3.3h-1.4l5.4-12.2 5.2 12.2h-1.4l-1.4-3.3H188.7zM191.2 21.7l-2 4.7h4L191.2 21.7zM206.3 21.5c-0.5-0.8-1-1.3-2-1.3 -1 0-1.9 0.7-1.9 1.8 0 1 1 1.5 1.8 1.8l0.8 0.3c1.5 0.7 2.8 1.4 2.8 3.3 0 2-1.7 3.6-3.7 3.6 -1.9 0-3.3-1.2-3.6-3l1.3-0.4c0.2 1.2 1.1 2.2 2.3 2.2 1.3 0 2.4-1 2.4-2.3 0-1.4-1.1-1.8-2.2-2.3l-0.7-0.3c-1.4-0.6-2.5-1.3-2.5-3 0-1.8 1.5-3 3.3-3 1.3 0 2.4 0.7 3 1.8L206.3 21.5zM218.2 21.5c-0.5-0.8-1-1.3-2-1.3 -1 0-1.9 0.7-1.9 1.8 0 1 1 1.5 1.8 1.8l0.8 0.3c1.5 0.7 2.8 1.4 2.8 3.3 0 2-1.6 3.6-3.7 3.6 -1.9 0-3.3-1.2-3.6-3l1.3-0.4c0.2 1.2 1.1 2.2 2.3 2.2 1.3 0 2.4-1 2.4-2.3 0-1.4-1.1-1.8-2.1-2.3l-0.7-0.3c-1.4-0.6-2.5-1.3-2.5-3 0-1.8 1.5-3 3.3-3 1.3 0 2.4 0.7 3 1.8L218.2 21.5zM236.4 25.1c0 3.3-2.8 6-6.1 6 -3.3 0-6.1-2.7-6.1-6 0-3.4 2.8-6.1 6.1-6.1C233.6 19 236.4 21.7 236.4 25.1zM225.5 25c0 2.6 2.1 4.8 4.8 4.8 2.6 0 4.8-2.2 4.8-4.8 0-2.6-2.1-4.8-4.8-4.8C227.6 20.2 225.5 22.4 225.5 25zM250.3 21.8c-0.9-1-2.2-1.5-3.6-1.5 -2.6 0-4.7 2.3-4.7 4.8s2.1 4.8 4.7 4.8c1.3 0 2.6-0.6 3.5-1.5v1.6c-1 0.7-2.2 1.1-3.5 1.1 -3.3 0-6.1-2.7-6.1-6 0-3.3 2.7-6.1 6.1-6.1 1.3 0 2.5 0.4 3.5 1.1V21.8zM257 30.9h-1.3V19.2h1.3V30.9zM264.4 27.6l-1.4 3.3h-1.4l5.4-12.2 5.2 12.2h-1.4l-1.4-3.3H264.4zM266.9 21.7l-2 4.7h3.9L266.9 21.7zM278.5 30.9h-1.3V20.4h-2.8v-1.2h7v1.2h-2.8V30.9zM287.3 30.9h-1.3V19.2h1.3V30.9zM304.4 25.1c0 3.3-2.8 6-6.1 6s-6.1-2.7-6.1-6c0-3.4 2.8-6.1 6.1-6.1S304.4 21.7 304.4 25.1zM293.6 25c0 2.6 2.1 4.8 4.8 4.8 2.7 0 4.8-2.2 4.8-4.8 0-2.6-2.1-4.8-4.8-4.8S293.6 22.4 293.6 25zM309.5 18.7l9.1 9.5v-9h1.3v12.2l-9.1-9.5v9h-1.3V18.7zM90.7 41.7c-0.6-0.8-1.6-1.3-2.7-1.3 -1.9 0-3.1 1.4-3.1 3.2 0 1.8 1.3 3.2 3.2 3.2 1 0 2-0.5 2.6-1.2v3.6c-1 0.3-1.7 0.5-2.7 0.5 -1.6 0-3.2-0.6-4.4-1.7 -1.3-1.1-1.9-2.7-1.9-4.4 0-1.6 0.6-3.1 1.7-4.3 1.2-1.2 2.8-1.9 4.5-1.9 1 0 1.9 0.2 2.8 0.6V41.7zM106.6 43.4c0 3.8-2.7 6.4-6.5 6.4 -3.8 0-6.5-2.7-6.5-6.4 0-3.5 3.1-6 6.5-6C103.5 37.4 106.6 39.9 106.6 43.4zM96.8 43.4c0 2 1.5 3.5 3.3 3.5 1.8 0 3.3-1.5 3.3-3.5 0-1.6-1.5-3.1-3.3-3.1C98.3 40.3 96.8 41.8 96.8 43.4zM110.9 37.8h3l2.4 6.2 2.5-6.2h3l1.8 11.7h-3l-0.9-6.7h0l-2.8 6.7h-1.2l-2.7-6.7h0l-1 6.7h-3L110.9 37.8zM127.8 37.8h3l2.4 6.2 2.5-6.2h3l1.8 11.7h-3l-0.9-6.7h0l-2.8 6.7h-1.2l-2.7-6.7h0l-1 6.7h-3L127.8 37.8zM146.4 49.5h-3V37.8h3V49.5zM154.7 49.5h-3v-9.1h-2.5v-2.6h8v2.6h-2.5V49.5zM164.6 49.5h-3v-9.1h-2.5v-2.6h8.1v2.6h-2.5V49.5zM172.9 40.4v1.9h3.4v2.6h-3.4v2h3.6v2.6h-6.6V37.8h6.6v2.6H172.9zM180.1 37.8h4.3c3.3 0 5.9 2.6 5.9 5.8 0 3.3-2.7 5.8-5.9 5.8h-4.3V37.8zM183.1 46.9h0.7c1.8 0 3.4-1 3.4-3.3 0-2.1-1.4-3.3-3.3-3.3h-0.7V46.9zM205 49.5h-3v-9.1h-2.5v-2.6h8.1v2.6h-2.5V49.5zM222.6 43.4c0 3.8-2.7 6.4-6.5 6.4 -3.7 0-6.5-2.7-6.5-6.4 0-3.5 3.1-6 6.5-6C219.5 37.4 222.6 39.9 222.6 43.4zM212.8 43.4c0 2 1.5 3.5 3.3 3.5 1.8 0 3.3-1.5 3.3-3.5 0-1.6-1.5-3.1-3.3-3.1C214.3 40.3 212.8 41.8 212.8 43.4zM237.3 49.5h-3v-9.1h-2.5v-2.6h8.1v2.6h-2.5V49.5zM250 42.3v-4.5h3V49.5h-3v-4.8h-4.4v4.8h-3V37.8h3v4.5H250zM259.7 40.4v1.9h3.4v2.6h-3.4v2h3.6v2.6h-6.7V37.8h6.7v2.6H259.7zM282.1 41.7c-0.6-0.8-1.6-1.3-2.7-1.3 -1.9 0-3.1 1.4-3.1 3.2 0 1.8 1.3 3.2 3.2 3.2 1 0 2-0.5 2.6-1.2v3.6c-1 0.3-1.7 0.5-2.7 0.5 -1.6 0-3.2-0.6-4.4-1.7 -1.3-1.1-1.9-2.7-1.9-4.4 0-1.6 0.6-3.1 1.7-4.3 1.1-1.2 2.8-1.9 4.4-1.9 1 0 1.9 0.2 2.8 0.6V41.7zM298 43.4c0 3.8-2.7 6.4-6.5 6.4 -3.7 0-6.5-2.7-6.5-6.4 0-3.5 3.1-6 6.5-6C294.9 37.4 298 39.9 298 43.4zM288.2 43.4c0 2 1.5 3.5 3.3 3.5 1.8 0 3.3-1.5 3.3-3.5 0-1.6-1.5-3.1-3.3-3.1C289.7 40.3 288.2 41.8 288.2 43.4zM310.8 49.5h-3.8l-2.9-4.5h0v4.5h-3V37.8h4.5c2.3 0 4.1 1.1 4.1 3.6 0 1.6-0.9 3-2.6 3.3L310.8 49.5zM304.1 43h0.3c1 0 2.1-0.2 2.1-1.5 0-1.3-1.1-1.4-2.1-1.4h-0.3V43zM316.3 40.4v1.9h3.4v2.6h-3.4v2h3.6v2.6h-6.6V37.8h6.6v2.6H316.3z" fill="#fff"/><path d="M36.1 11c0 4.1-1.4 7.4-4.2 9.9 -2.4 2.1-5.2 3.2-8.4 3.2 -0.9 0-2.4 0-4.6-0.1 -2.2 0-3.7-0.1-4.4-0.1 -0.9 0-2.1 0-3.8 0.1 -1.7 0-2.5 0.1-2.4 0.1 -0.3 0-0.4-0.1-0.4-0.3 0-0.1 0.1-0.3 0.3-0.5 2.8-3.1 4.1-6.7 4.1-10.9 0-6-1.8-8.9-5.5-8.9 -1.2 0-2.2 0.4-2.9 1.2 -0.8 0.8-1.1 1.8-1.1 2.9 0 1.1 0.3 1.9 0.8 2.5 0.5 0.6 1.2 0.9 2 0.9 1.2 0 1.8-0.4 1.8-1.1 0-0.1-0.1-0.2-0.3-0.1C6.7 9.8 6.4 9.8 6.3 9.8c-0.6 0-1.1-0.2-1.5-0.6 -0.4-0.4-0.6-1-0.6-1.7 0-0.8 0.3-1.4 0.7-1.9 0.5-0.5 1.1-0.8 1.9-0.8 1 0 1.8 0.3 2.5 1 0.7 0.8 1.1 1.8 1.1 3.2 0 1.4-0.5 2.5-1.4 3.3 -0.9 0.8-2.1 1.3-3.5 1.3 -1.5 0-2.7-0.6-3.7-1.6 -1-1.1-1.5-2.5-1.5-4.3 0-2.1 0.8-3.9 2.4-5.2C4.2 1.1 6.2 0.5 8.7 0.5l13.9-0.1c3.5 0 6.5 0.8 9 2.4C34.6 4.7 36.1 7.5 36.1 11zM29.2 11.9c0-2.6-0.8-4.7-2.3-6.2C25.5 4.4 23.9 3.8 22 3.8c-1.5 0-2.6 0.5-3.2 1.5 -0.8 1.3-1.1 3.7-1.1 7.2 0 3.6 0.3 6 1 7.2 0.5 0.8 1.6 1.3 3.1 1.3 2.1 0 3.9-0.9 5.3-2.6C28.5 16.6 29.2 14.4 29.2 11.9z" fill="#fff"/><path d="M8.7 0.3C6.2 0.3 4.1 1 2.5 2.4 0.8 3.7 0 5.5 0 7.7c0 1.8 0.5 3.3 1.6 4.4 1 1.1 2.3 1.7 3.9 1.7 1.4 0 2.6-0.4 3.6-1.3 1-0.9 1.5-2 1.5-3.5 0-1.4-0.4-2.5-1.1-3.3C8.7 5 7.9 4.6 6.8 4.6c-0.8 0-1.5 0.3-2 0.8 -0.5 0.6-0.8 1.2-0.8 2 0 0.8 0.2 1.4 0.6 1.8 0.4 0.5 1 0.7 1.6 0.7 0.2 0 0.4 0 0.8-0.1 0 0 0 0 0.1 0 0 0.3-0.1 0.9-1.6 0.9 -0.7 0-1.3-0.3-1.8-0.9C3.2 9.4 3 8.5 3 7.5c0-1 0.4-1.9 1.1-2.7 0.7-0.8 1.6-1.2 2.8-1.2 3.6 0 5.3 2.9 5.3 8.8 0 4.1-1.4 7.8-4.1 10.8 -0.2 0.3-0.4 0.5-0.4 0.6 0 0.1 0.1 0.5 0.6 0.5 0 0 2.4-0.1 2.4-0.1l3.8-0.1 4.4 0.1 4.6 0.1c3.2 0 6-1.1 8.5-3.2 2.8-2.5 4.2-5.9 4.2-10 0-3.6-1.5-6.4-4.5-8.4 -2.5-1.6-5.6-2.4-9.1-2.4L8.7 0.3zM1.8 11.9c-1-1.1-1.5-2.5-1.5-4.2 0-2.1 0.8-3.8 2.3-5 1.6-1.3 3.6-1.9 6.1-1.9 0 0 13.9-0.1 13.9-0.1 3.5 0 6.5 0.8 8.9 2.4 2.9 1.9 4.3 4.6 4.3 8.1 0 4-1.4 7.3-4.1 9.8 -2.4 2.1-5.2 3.1-8.3 3.1l-4.6-0.1 -4.4-0.1 -3.8 0.1 -1.8 0.1c-0.3 0-0.5 0-0.6 0 0 0 0 0 0 0 -0.2 0-0.2-0.1-0.2-0.1 0 0 0-0.1 0.3-0.4 2.8-3.1 4.2-6.8 4.2-11 0-6.1-1.9-9.1-5.7-9.1 -1.2 0-2.3 0.4-3 1.3C3 5.4 2.6 6.4 2.6 7.5c0 1.1 0.3 2 0.8 2.6 0.5 0.7 1.3 1 2.1 1 1.6 0 2-0.7 2-1.3 0-0.1-0.1-0.2-0.1-0.3C7.3 9.5 7.2 9.5 7 9.6 6.7 9.6 6.4 9.6 6.3 9.6c-0.6 0-1-0.2-1.4-0.6C4.5 8.7 4.3 8.1 4.3 7.5c0-0.7 0.2-1.3 0.7-1.8C5.5 5.2 6.1 5 6.8 5c1 0 1.8 0.3 2.3 1 0.7 0.7 1 1.7 1 3.1 0 1.3-0.5 2.4-1.4 3.2 -0.9 0.8-2.1 1.2-3.4 1.2C4 13.5 2.8 12.9 1.8 11.9zM18.7 5.1c-0.8 1.3-1.2 3.7-1.2 7.3 0 3.7 0.3 6.1 1 7.2 0.6 0.9 1.7 1.4 3.2 1.4 2.1 0 4-0.9 5.4-2.6 1.4-1.7 2.1-3.9 2.1-6.5 0-2.7-0.8-4.8-2.4-6.3 -1.4-1.3-3-2-5-2C20.5 3.6 19.3 4.1 18.7 5.1zM18.9 19.5c-0.7-1.1-1-3.5-1-7.1 0-3.5 0.4-5.9 1.1-7.1 0.6-0.9 1.6-1.4 3-1.4 1.8 0 3.4 0.6 4.7 1.9 1.5 1.5 2.2 3.5 2.2 6.1 0 2.5-0.7 4.6-2 6.3 -1.4 1.7-3.1 2.5-5.1 2.5C20.4 20.7 19.4 20.3 18.9 19.5z" fill="#fff"/><path d="M63.2 1.2c-1.8 1.2-3.9 4-6.1 8.5 -2.2 4.5-3.4 8.2-3.4 11 0 1.4 0.1 2.4 0.4 2.9 0.1 0.3 0 0.5-0.4 0.5H43.2c-0.4 0-0.6-0.2-0.5-0.6 0.2-0.6 0.2-1.5 0.2-2.6 0-3-1.2-6.7-3.5-11.1 -2.2-4.3-4.3-7-6.2-8.2 -0.3-0.2-0.4-0.4-0.4-0.5 0-0.1 0.1-0.2 0.3-0.2h13.2c0.3 0 0.5 0.1 0.5 0.2 0 0.1-0.1 0.1-0.2 0.2 -1.3 0.8-2 2-2 3.4 0 2 0.7 4.5 2.2 7.5 1.4 2.8 2.3 4.2 2.8 4.2 0.5 0 1.3-1.3 2.3-3.8 1.1-2.7 1.7-5.1 1.7-7 0-2.1-0.8-3.5-2.4-4.2C51.1 1.1 51.1 1 51.1 1c0-0.1 0.2-0.2 0.6-0.2h11.5c0.3 0 0.4 0 0.4 0.1C63.5 1 63.4 1.1 63.2 1.2z" fill="#fff"/><path d="M51.7 0.6c-0.2 0-0.7 0-0.7 0.4 0 0.1 0.1 0.2 0.3 0.3 1.5 0.7 2.3 2 2.3 4.1 0 1.9-0.6 4.3-1.6 7 -1.4 3.4-2 3.7-2.2 3.7 -0.2 0-0.9-0.4-2.7-4.1 -1.4-3-2.1-5.4-2.1-7.4 0-1.4 0.6-2.5 1.9-3.3 0.1-0.1 0.3-0.2 0.3-0.4 0-0.3-0.5-0.3-0.7-0.3H33.2c-0.3 0-0.4 0.2-0.4 0.4 0 0.2 0.2 0.4 0.5 0.6 1.9 1.1 3.9 3.9 6.1 8.1 2.3 4.4 3.4 8.2 3.4 11.1 0 1.1-0.1 1.9-0.2 2.6 -0.1 0.3-0.1 0.5 0 0.6 0.1 0.2 0.3 0.2 0.6 0.2h10.6c0.3 0 0.5-0.1 0.6-0.2 0.1-0.1 0.1-0.3 0-0.5 -0.2-0.5-0.4-1.5-0.4-2.9 0-2.7 1.1-6.4 3.3-10.9 2.2-4.4 4.2-7.2 6-8.4l0 0c0.3-0.2 0.4-0.3 0.4-0.5 0-0.3-0.4-0.3-0.6-0.3H51.7zM51.7 0.9h11.5c0.1 0 0.1 0 0.2 0 0 0-0.1 0.1-0.2 0.1l0 0c-1.9 1.2-3.9 4.1-6.1 8.5 -2.2 4.5-3.4 8.3-3.4 11 0 1.4 0.1 2.4 0.4 3 0 0 0 0.1 0 0.1 0 0 0 0 0 0 0 0-0.1 0.1-0.3 0.1H43.2c-0.2 0-0.3 0-0.3-0.1 0 0 0-0.2 0-0.3 0.2-0.7 0.3-1.5 0.3-2.7 0-3-1.2-6.7-3.5-11.2 -2.2-4.3-4.3-7.1-6.2-8.3C33.1 1.1 33.1 1 33.1 1c0 0 0 0 0.1 0h13.2c0.1 0 0.2 0 0.3 0 0 0 0 0-0.1 0.1 -1.4 0.9-2.1 2-2.1 3.6 0 2 0.7 4.5 2.2 7.5 1.8 3.8 2.6 4.3 3 4.3 0.4 0 1.1-0.5 2.5-3.9 1.1-2.7 1.7-5.1 1.7-7.1 0-2.2-0.8-3.7-2.5-4.4l0 0 0 0C51.4 0.9 51.5 0.9 51.7 0.9z" fill="#fff"/><path d="M33.9 42.4c0 2.3-1.1 4-3.2 5.3 -1.8 1.1-4 1.6-6.7 1.6h-15.9c-0.2 0-0.4-0.1-0.4-0.3 0-0.1 0.1-0.3 0.2-0.4 0.7-1.1 1.4-2.5 2-4.4 0.7-2.3 1.1-4.7 1.1-7 0-4.8-1-8.3-3-10.5C8 26.6 8 26.5 8 26.5c0-0.3 0.2-0.4 0.7-0.3 0.8 0 2.5 0.1 5.1 0 3.2 0 5.9-0.1 8-0.2 3.2-0.1 6.3 0.3 8.3 1.2 2.3 1 3.5 2.5 3.5 4.6 0 1.4-0.6 2.6-1.9 3.6 -0.9 0.7-1.9 1.3-3 1.6v0.2C32.1 38 33.9 39.8 33.9 42.4zM26.4 42.1c0-1.1-0.5-2-1.5-2.6 -1-0.7-2.3-1-4.1-1 -3.4 0-5.2 1.3-5.2 3.8 0 1.2 0.5 2.2 1.4 2.8 0.9 0.6 2.2 1 3.8 1 1.6 0 2.9-0.4 4-1.1C25.9 44.3 26.4 43.3 26.4 42.1zM25.7 31.9c0-1.8-1.7-2.8-5-2.8 -1.5 0-2.6 0.3-3.5 0.8 -0.8 0.5-1.3 1.2-1.3 2.1 0 1 0.5 1.8 1.5 2.4 0.9 0.5 2 0.7 3.3 0.7 1.3 0 2.4-0.2 3.4-0.8C25.2 33.7 25.7 32.9 25.7 31.9z" fill="#fff"/><path d="M21.7 25.8c-2.1 0.1-4.7 0.1-8 0.1 -2.6 0-4.3 0-5.1 0 -0.4 0-0.6 0-0.8 0.2 -0.1 0.1-0.1 0.2-0.1 0.3 0 0.1 0 0.2 0.1 0.4 0 0 0 0 0 0 1.9 2.2 2.9 5.6 2.9 10.4 0 2.3-0.4 4.6-1.1 6.9 -0.6 1.8-1.2 3.3-1.9 4.4 -0.1 0.2-0.2 0.4-0.2 0.5 0 0.1 0.1 0.4 0.6 0.4h15.9c2.7 0 5-0.5 6.8-1.6 2.1-1.3 3.2-3.1 3.2-5.4 0-2.7-1.8-4.5-5.3-5.4 1.1-0.4 2.1-0.9 2.9-1.6 1.3-1 2-2.3 2-3.7 0-2.1-1.2-3.7-3.6-4.7C28.1 26.1 25.1 25.7 21.7 25.8zM13.8 26.3c3.2 0 5.9-0.1 8-0.1 3.3-0.1 6.3 0.3 8.2 1.1 2.3 1 3.4 2.4 3.4 4.4 0 1.3-0.6 2.5-1.8 3.4 -0.9 0.7-1.9 1.3-3 1.6 -0.1 0-0.1 0.1-0.1 0.2v0.2c0 0.1 0.1 0.1 0.1 0.2 3.5 0.8 5.2 2.5 5.2 5.1 0 2.2-1 3.9-3.1 5.1 -1.8 1-4 1.6-6.6 1.6h-15.9c-0.2 0-0.2-0.1-0.2-0.1 0-0.1 0-0.1 0.1-0.3 0.7-1.1 1.4-2.6 2-4.4 0.7-2.3 1.1-4.7 1.1-7 0-4.8-1-8.3-3-10.6C8.2 26.5 8.2 26.5 8.2 26.5c0-0.1 0-0.1 0-0.1 0 0 0.1-0.1 0.5-0.1C9.5 26.3 11.2 26.4 13.8 26.3zM15.5 42.3c0 1.3 0.5 2.3 1.4 3 0.9 0.7 2.2 1 3.9 1 1.6 0 3-0.4 4.1-1.1 1.1-0.7 1.7-1.8 1.7-3 0-1.1-0.5-2.1-1.6-2.8 -1-0.7-2.4-1-4.2-1C17.3 38.3 15.5 39.6 15.5 42.3zM17.2 44.9c-0.9-0.6-1.3-1.5-1.3-2.7 0-2.4 1.6-3.7 5-3.7 1.7 0 3 0.3 4 1 0.9 0.6 1.4 1.5 1.4 2.5 0 1.2-0.5 2.1-1.5 2.7 -1 0.7-2.3 1-3.9 1C19.3 45.9 18.1 45.6 17.2 44.9zM17.1 29.7c-0.9 0.5-1.3 1.3-1.3 2.2 0 1.1 0.5 1.9 1.6 2.5 0.9 0.5 2 0.8 3.4 0.8 1.3 0 2.5-0.3 3.5-0.8 1.1-0.6 1.7-1.5 1.7-2.6 0-1.9-1.7-2.9-5.2-2.9C19.2 29 18 29.2 17.1 29.7zM17.5 34.2c-0.9-0.5-1.4-1.2-1.4-2.2 0-0.8 0.4-1.5 1.2-1.9 0.8-0.5 1.9-0.7 3.4-0.7 3.3 0 4.8 0.8 4.8 2.6 0 0.9-0.5 1.7-1.5 2.3 -0.9 0.5-2 0.7-3.3 0.7C19.4 34.9 18.4 34.7 17.5 34.2z" fill="#fff"/><path d="M63.9 48.9c0.1 0.1 0.1 0.2 0.1 0.3 -0.1 0.1-0.2 0.1-0.3 0.1H53.1c-0.2 0-0.3-0.1-0.3-0.2 0-0.1 0-0.2 0.1-0.3 0.6-0.6 0.9-1.3 0.9-2.3 0-1.2-0.5-2-1.6-2.3 -0.6-0.2-2-0.3-4-0.3 -1.8 0-3.1 0.1-3.8 0.4 -0.9 0.3-1.4 0.9-1.4 1.7 0 1 0.4 1.9 1.2 2.9 0.1 0.1 0.1 0.1 0.1 0.2 0 0.2-0.2 0.2-0.5 0.2h-9.6c-0.2 0-0.3-0.1-0.3-0.2 0-0.1 0.1-0.2 0.2-0.4 1.5-1.6 3.1-4.2 4.8-7.7 1.9-4.2 2.9-7.8 2.9-10.9 0-1.5-0.2-2.7-0.5-3.6 -0.1-0.3-0.1-0.5 0.2-0.5h13.3c0.3 0 0.4 0.1 0.3 0.3 -0.1 0.4-0.2 1.2-0.2 2.5 0 3.1 1.2 7.1 3.5 11.9C60.6 45 62.4 47.7 63.9 48.9zM51.4 38.6c0-0.4-0.4-1.5-1.2-3.3 -0.9-2-1.7-3-2.3-3 -0.6 0-1.3 1-2.1 3 -0.7 1.8-1.1 2.9-1.1 3.5 0 0.7 0.4 1.2 1.1 1.4 0.4 0.1 1 0.2 2 0.2 1.4 0 2.3-0.1 2.8-0.3C51.1 39.8 51.4 39.3 51.4 38.6z" fill="#fff"/><path d="M41.5 25.9c-0.2 0-0.3 0.1-0.4 0.2 -0.1 0.1-0.1 0.3 0 0.5 0.3 0.8 0.5 2 0.5 3.5 0 3-1 6.6-2.9 10.8 -1.6 3.5-3.2 6.1-4.7 7.7 -0.2 0.2-0.3 0.3-0.3 0.5 0 0.1 0 0.4 0.5 0.4h9.6c0.5 0 0.7-0.2 0.7-0.4 0-0.1-0.1-0.2-0.2-0.3 -0.8-0.9-1.2-1.9-1.2-2.7 0-0.8 0.4-1.3 1.3-1.6 0.7-0.2 1.9-0.4 3.7-0.4 2 0 3.3 0.1 3.9 0.3 1 0.3 1.4 1 1.4 2.1 0 0.9-0.3 1.6-0.8 2.2 -0.2 0.2-0.2 0.4-0.1 0.5 0 0.1 0.1 0.3 0.5 0.3h10.6c0.2 0 0.4-0.1 0.4-0.2 0.1-0.1 0.1-0.3-0.1-0.5v0c-1.5-1.1-3.3-3.8-5.3-8.1 -2.3-4.7-3.5-8.7-3.5-11.8 0-1.3 0.1-2.1 0.2-2.4 0.1-0.2 0-0.3 0-0.4 -0.1-0.1-0.2-0.2-0.5-0.2H41.5zM41.5 26.2h13.3c0.2 0 0.2 0 0.2 0l0 0.1c-0.1 0.4-0.2 1.3-0.2 2.6 0 3.2 1.2 7.2 3.5 11.9 2.1 4.3 3.9 7 5.4 8.2l0 0 0 0c0 0-0.1 0.1-0.2 0.1H53.1c-0.1 0-0.1 0-0.1-0.1 0 0 0-0.1 0.1-0.1 0.6-0.6 0.9-1.4 0.9-2.4 0-1.3-0.6-2.1-1.7-2.5 -0.7-0.2-2-0.3-4-0.3 -1.9 0-3.1 0.1-3.8 0.4 -1 0.3-1.5 1-1.5 1.9 0 1 0.4 2 1.2 3 0 0 0.1 0.1 0.1 0.1 0 0 0 0-0.3 0h-9.6c-0.1 0-0.1 0-0.1-0.1 0 0 0-0.1 0.1-0.2 1.6-1.6 3.2-4.2 4.8-7.8 1.9-4.2 2.9-7.9 2.9-11 0-1.5-0.2-2.8-0.5-3.6 0-0.1-0.1-0.2-0.1-0.2 0 0 0 0 0 0C41.5 26.3 41.5 26.2 41.5 26.2zM63.8 49L63.8 49 63.8 49 63.8 49zM63.8 49L63.8 49 63.8 49zM45.6 35.1c-0.8 1.8-1.1 3-1.1 3.5 0 0.8 0.4 1.4 1.2 1.6 0.4 0.1 1 0.2 2 0.2 1.4 0 2.4-0.1 2.9-0.3 0.7-0.2 1-0.8 1-1.6 0-0.5-0.4-1.6-1.3-3.4 -1-2.1-1.7-3.1-2.4-3.1C47.3 32.1 46.5 33.1 45.6 35.1zM45.8 39.9c-0.6-0.2-1-0.6-1-1.3 0-0.5 0.4-1.7 1.1-3.4 1-2.5 1.7-2.8 2-2.8 0.3 0 0.9 0.4 2.1 2.9 1 2.2 1.2 3 1.2 3.3 0 0.6-0.2 1-0.8 1.2 -0.4 0.2-1.4 0.3-2.7 0.3C46.8 40.1 46.2 40.1 45.8 39.9z" fill="#fff"/></svg>