<?xml version="1.0" encoding="iso-8859-1"?>
<!-- Generator: Adobe Illustrator 15.1.0, SVG Export Plug-In . SVG Version: 6.00 Build 0)  -->
<!DOCTYPE svg PUBLIC "-//W3C//DTD SVG 1.1//EN" "http://www.w3.org/Graphics/SVG/1.1/DTD/svg11.dtd">
<svg version="1.1" id="Layer_1" xmlns="http://www.w3.org/2000/svg" xmlns:xlink="http://www.w3.org/1999/xlink" x="0px" y="0px"
	 width="118.698px" height="118.698px" viewBox="0 0 118.698 118.698" style="enable-background:new 0 0 118.698 118.698;"
	 xml:space="preserve">
<g>
	<g>
		<path style="fill:#ffcb08;" d="M59.349,0C26.571,0,0,26.571,0,59.349c0,32.779,26.571,59.349,59.349,59.349
			c32.778,0,59.35-26.57,59.35-59.348C118.698,26.572,92.127,0,59.349,0z M58.123,17.605c4.007,0,7.264,3.257,7.264,7.27
			c0,4.015-3.257,7.266-7.264,7.266c-4.017,0-7.271-3.251-7.271-7.266C50.852,20.863,54.106,17.605,58.123,17.605z M74.801,63.068
			c-0.043,1.661-1.37,3.023-3.046,3.067c-1.745,0.058-3.183-1.308-3.236-3.041V63.01c-0.069-2.254-0.259-4.671-0.535-6.977
			c-0.294-2.317-0.674-4.604-1.218-6.794c-0.131-0.537-0.284-1.072-0.441-1.599l-0.353,8.134l1.362,37.164
			c0.072,1.875-1.354,3.501-3.246,3.652c-1.947,0.162-3.646-1.293-3.804-3.234l-2.161-26.748L55.96,93.356
			c-0.153,1.863-1.759,3.314-3.651,3.243c-1.954-0.071-3.479-1.712-3.409-3.661l1.374-37.146l-0.356-8.152
			c-0.157,0.527-0.318,1.062-0.451,1.599c-0.537,2.191-0.922,4.478-1.204,6.794c-0.282,2.306-0.467,4.723-0.54,6.977v0.092
			c-0.055,1.65-1.396,2.999-3.066,3.033c-1.74,0.045-3.175-1.332-3.219-3.067c-0.055-2.624,0.015-5.096,0.186-7.656
			c0.175-2.542,0.454-5.093,0.951-7.688c0.53-2.593,1.186-5.229,2.646-7.977c0.756-1.354,1.75-2.802,3.388-4.025
			c0.812-0.603,1.814-1.113,2.889-1.407c0.531-0.146,1.081-0.236,1.625-0.281h9.992c0.553,0.044,1.1,0.135,1.633,0.281
			c1.076,0.293,2.072,0.804,2.887,1.407c1.641,1.223,2.628,2.671,3.379,4.025c1.463,2.748,2.121,5.384,2.648,7.977
			c0.504,2.595,0.787,5.146,0.961,7.688C74.794,57.972,74.859,60.444,74.801,63.068z"/>
	</g>
</g>
</svg>
