<?xml version="1.0" encoding="utf-8"?>
<!-- Generator: Adobe Illustrator 19.1.0, SVG Export Plug-In . SVG Version: 6.00 Build 0)  -->
<svg version="1.1" id="Layer_1" xmlns="http://www.w3.org/2000/svg" xmlns:xlink="http://www.w3.org/1999/xlink" x="0px" y="0px"
	 viewBox="-241 339.3 127.2 114.7" style="enable-background:new -241 339.3 127.2 114.7;" xml:space="preserve">
<style type="text/css">
	.st0{fill:#00B0BD;}
</style>
<g>
	<path class="st0" d="M-115.4,392.6l-60.2-52.2c-1.8-1.6-4.5-1.5-6.3,0.1l-57.6,51.6c-1.9,1.7-2.1,4.7-0.3,6.7
		c1.7,1.9,4.7,2.1,6.7,0.3l54.5-48.8l57,49.4c0.9,0.8,2,1.2,3.1,1.2c1.3,0,2.6-0.6,3.6-1.6C-113.2,397.3-113.4,394.4-115.4,392.6z"
		/>
	<path class="st0" d="M-224.4,400.1v46.8c0,1.9,0.7,3.6,2.1,5c1.4,1.4,3.1,2.1,5.1,2.1h27.2v-29.3c0-2,0.7-3.7,2.1-5.1
		c1.4-1.5,3.1-2.2,5.1-2.2h11c2,0,3.6,0.7,5.1,2.2c1.4,1.5,2.1,3.2,2.1,5.1V454h27.4c2,0,3.6-0.7,5-2.1c1.4-1.4,2.1-3.1,2.1-5V401
		l-48.4-41.9L-224.4,400.1z"/>
</g>
</svg>
