<?xml version="1.0" encoding="iso-8859-1"?>
<!-- Generator: Adobe Illustrator 15.1.0, SVG Export Plug-In . SVG Version: 6.00 Build 0)  -->
<!DOCTYPE svg PUBLIC "-//W3C//DTD SVG 1.1//EN" "http://www.w3.org/Graphics/SVG/1.1/DTD/svg11.dtd">
<svg version="1.1" id="Layer_1" xmlns="http://www.w3.org/2000/svg" xmlns:xlink="http://www.w3.org/1999/xlink" x="0px" y="0px"
	 width="116.646px" height="110.867px" viewBox="0 0 116.646 110.867" style="enable-background:new 0 0 116.646 110.867;"
	 xml:space="preserve">
<path style="fill:#f7941f;" d="M114.531,30.394c-1.423-1.486-3.113-2.222-5.113-2.222H88.059c-0.236-3.335-1.002-6.535-2.314-9.595
	c-1.602-3.729-3.746-6.957-6.482-9.667c-2.705-2.735-5.934-4.908-9.641-6.507C65.902,0.803,61.977,0,57.837,0
	c-4.121,0-8.058,0.803-11.801,2.402c-3.719,1.6-6.945,3.771-9.681,6.507c-2.71,2.71-4.879,5.926-6.481,9.643
	c-1.315,3.042-2.079,6.254-2.313,9.62H7.281c-1.977,0-3.693,0.736-5.113,2.222C0.737,31.865,0,33.593,0,35.569v68.045
	c0,1.96,0.737,3.677,2.168,5.109c1.42,1.436,3.136,2.143,5.113,2.143h102.137c2,0,3.69-0.707,5.113-2.141
	c1.404-1.435,2.114-3.151,2.114-5.111V35.569C116.646,33.593,115.936,31.865,114.531,30.394z M43.234,15.761
	c1.846-1.866,4.041-3.313,6.546-4.399c2.503-1.071,5.189-1.613,8.058-1.613c2.863,0,5.548,0.542,8.042,1.613
	c2.493,1.085,4.658,2.532,6.518,4.398c1.857,1.875,3.33,4.042,4.4,6.549c0.791,1.864,1.289,3.816,1.498,5.862H37.321
	c0.21-2.046,0.712-3.998,1.514-5.862C39.902,19.803,41.362,17.636,43.234,15.761z"/>
</svg>
