<?xml version="1.0" encoding="utf-8"?>
<!-- Generator: Adobe Illustrator 16.0.0, SVG Export Plug-In . SVG Version: 6.00 Build 0)  -->
<!DOCTYPE svg PUBLIC "-//W3C//DTD SVG 1.1//EN" "http://www.w3.org/Graphics/SVG/1.1/DTD/svg11.dtd">
<svg version="1.1" id="Layer_1" xmlns="http://www.w3.org/2000/svg" xmlns:xlink="http://www.w3.org/1999/xlink" x="0px" y="0px"
	 width="118.699px" height="118.697px" viewBox="0 0 118.699 118.697" enable-background="new 0 0 118.699 118.697"
	 xml:space="preserve">
<g>
	<path fill="#FFCB08" d="M38.775,55.572c-0.885-0.56-4.148-1.993-5.133-0.877c-0.979,1.114-1.754,6.056-0.158,7.416
		c1.59,1.354,9.277,1.443,9.916,0.727C44.037,62.119,42.826,58.159,38.775,55.572z"/>
	<path fill="#FFCB08" d="M82.906,49.335c-2.439-4.457-5.08-8.658-6.223-9.583c-2.091-1.291-6.062-1.509-16.925-1.509
		c-10.861,0-14.832,0.219-16.824,1.449c-1.195,0.954-3.85,5.179-6.316,9.656c6.984,1.122,14.805,1.773,23.109,1.773
		C68.066,51.12,75.912,50.469,82.906,49.335z"/>
	<path fill="#FFCB08" d="M69.816,68.37H49.711c-1.244,0-1.992,0.836-1.654,1.859c0.336,1.022,1.973,1.856,4.795,1.856h13.824
		c2.889,0,4.463-0.834,4.795-1.856C71.811,69.206,71.061,68.37,69.816,68.37z"/>
	<path fill="#FFCB08" d="M80.756,55.572c-4.055,2.587-5.264,6.547-4.621,7.265c0.633,0.719,8.324,0.627,9.912-0.727
		c1.598-1.359,0.82-6.301-0.16-7.416C84.906,53.579,81.637,55.013,80.756,55.572z"/>
	<path fill="#FFCB08" d="M59.35,0C26.572,0,0,26.571,0,59.349c0,32.778,26.572,59.349,59.35,59.349
		c32.778,0,59.35-26.57,59.35-59.348S92.127,0,59.35,0z M94.938,49.233c-0.114,0.81-0.869,1.479-1.69,1.479h-2.386
		c-0.082,0-0.176-0.022-0.258-0.025v0.002c-1.112,0-2.141,0.513-1.748,2.055c1.349,2.754,2.375,5.192,2.732,6.6
		C92.25,62,91.7,67.763,90.732,72.293c0.004,0.076,0.022,0.149,0.022,0.228v8.812c0,2.049-1.685,3.723-3.729,3.723h-3.063
		c-2.051,0-3.729-1.674-3.729-3.723v-2.736c-10.815,0-30.125,0-40.938,0v2.736c0,2.049-1.68,3.723-3.725,3.723H32.5
		c-2.045,0-3.725-1.674-3.725-3.723v-8.812c0-0.078,0.018-0.149,0.022-0.228c-0.967-4.53-1.516-10.293-0.85-12.948
		c0.354-1.408,1.385-3.84,2.729-6.596c0.395-1.547-0.639-2.06-1.754-2.06v-0.002c-0.082,0.002-0.174,0.025-0.248,0.025h-2.387
		c-0.822,0-1.58-0.669-1.693-1.479c0,0-0.537-3.821,2.305-3.821c1.322,0,5.529,0,5.529,0c0.697,0,1.301,0.453,1.514,1.039
		c0.033-0.032,0.064-0.067,0.1-0.103c2.629-4.654,5.4-8.869,6.84-9.758c2.986-1.855,7.176-2.076,18.885-2.076
		c11.706,0,15.896,0.221,18.885,2.076c1.438,0.889,4.215,5.104,6.842,9.76c0.033,0.033,0.062,0.068,0.096,0.101
		c0.211-0.586,0.814-1.039,1.516-1.039c0,0,4.205,0,5.525,0C95.471,45.412,94.938,49.233,94.938,49.233z"/>
</g>
<rect x="155.232" y="181.88" fill="#21409A" width="5" height="2"/>
</svg>
