<?xml version="1.0" encoding="utf-8"?>
<!-- Generator: Adobe Illustrator 16.0.0, SVG Export Plug-In . SVG Version: 6.00 Build 0)  -->
<!DOCTYPE svg PUBLIC "-//W3C//DTD SVG 1.1//EN" "http://www.w3.org/Graphics/SVG/1.1/DTD/svg11.dtd">
<svg version="1.1" id="Layer_1" xmlns="http://www.w3.org/2000/svg" xmlns:xlink="http://www.w3.org/1999/xlink" x="0px" y="0px"
	 width="127.23px" height="114.668px" viewBox="0 0 127.23 114.668" enable-background="new 0 0 127.23 114.668"
	 xml:space="preserve">
<g>
	<path fill="#799AA1" d="M125.604,53.316l-60.15-52.16c-1.802-1.564-4.487-1.537-6.256,0.064L1.552,52.856
		c-1.932,1.748-2.079,4.73-0.331,6.661c1.747,1.933,4.729,2.08,6.661,0.332l54.548-48.83l56.993,49.421
		c0.894,0.775,1.994,1.154,3.091,1.154c1.317,0,2.631-0.551,3.562-1.625C127.782,58.002,127.573,55.023,125.604,53.316z"/>
	<path fill="#799AA1" d="M16.55,60.756v46.75c0,1.935,0.729,3.632,2.142,5.047c1.401,1.416,3.099,2.115,5.05,2.115h27.154V85.387
		c0-1.951,0.729-3.658,2.141-5.112c1.402-1.467,3.098-2.194,5.05-2.194h11.029c1.977,0,3.646,0.729,5.051,2.194
		c1.39,1.454,2.089,3.161,2.089,5.112v29.281h27.401c1.975,0,3.645-0.699,5.049-2.115c1.39-1.415,2.09-3.112,2.09-5.047V61.625
		L62.429,19.686L16.55,60.756z"/>
</g>
</svg>
