<?xml version="1.0" encoding="utf-8"?>
<!-- Generator: Adobe Illustrator 16.0.0, SVG Export Plug-In . SVG Version: 6.00 Build 0)  -->
<!DOCTYPE svg PUBLIC "-//W3C//DTD SVG 1.1//EN" "http://www.w3.org/Graphics/SVG/1.1/DTD/svg11.dtd">
<svg version="1.1" id="Layer_1" xmlns="http://www.w3.org/2000/svg" xmlns:xlink="http://www.w3.org/1999/xlink" x="0px" y="0px"
	 width="98.564px" height="127.139px" viewBox="0 0 98.564 127.139" enable-background="new 0 0 98.564 127.139"
	 xml:space="preserve">
<path fill="#A3D063" d="M49.288,0C22.066,0,0,22.073,0,49.281c0,34.799,49.288,77.857,49.288,77.857s49.276-40.74,49.276-77.857
	C98.564,22.073,76.499,0,49.288,0z M67.624,73.959c0,2.548-2.015,4.562-4.562,4.562c-2.549,0-4.562-2.015-4.562-4.562V61.516H41.672
	v12.442c0,2.548-2.014,4.562-4.562,4.562s-4.562-2.015-4.562-4.562V40.898c0-2.548,2.016-4.562,4.562-4.562s4.562,2.015,4.562,4.562
	v12.205H58.5V40.898c0-2.548,2.015-4.562,4.562-4.562c2.547,0,4.562,2.015,4.562,4.562V73.959z"/>
</svg>
